<?xml version="1.0" encoding="utf-8"?>
<!-- Generator: Adobe Illustrator 24.2.1, SVG Export Plug-In . SVG Version: 6.00 Build 0)  -->
<svg version="1.1" id="Green_Man_Gaming_-_Dark_BG" xmlns="http://www.w3.org/2000/svg" xmlns:xlink="http://www.w3.org/1999/xlink"
	 x="0px" y="0px" viewBox="0 0 553.2 135.7" style="enable-background:new 0 0 553.2 135.7;" xml:space="preserve">
<style type="text/css">
	.st0{display:none;fill:#27282E;}
	.st1{fill:#00E205;}
	.st2{fill:#FFFFFF;}
</style>
<rect x="-165.6" y="-272.8" class="st0" width="771.3" height="481.1"/>
<g>
	<g>
		<path class="st1" d="M108.4,93.8c-7.9,8.3-18.9,13.7-31,14.5V93.8H108.4z M58.3,108.3c-12.2-0.8-23.1-6.2-31.1-14.5h31.1V108.3z
			 M135.6,0H67.9C30.4,0,0,30.3,0,67.8s30.4,67.9,67.9,67.9c35.9,0,65.2-27.8,67.7-63.1V0z"/>
	</g>
	<g>
		<polygon class="st2" points="339,57.8 338.9,57.8 338.9,67.6 339,67.6 339,68 351.9,68 351.9,56.8 339,56.8 		"/>
		<path class="st2" d="M181.7,46.7c4.6,0,9.6-1.9,11.8-6.1h0.2v1.3c0,6.8-3.4,11.7-10.5,11.7c-3.2,0-6.1-1.2-7.5-4.3h-14.9
			c0.3,2.4,1.2,4.7,2.6,6.7c4.3,6.2,11.6,8.5,18.9,8.5c7.8,0,17.6-3,21.8-10.2c2.5-4.3,2.6-9.4,2.6-14.2V2.2h-12.9v4h-0.2
			c-2.5-4-7.5-5.4-11.9-5.4C168.6,0.8,160,11.4,160,24C160,36.6,168.8,46.7,181.7,46.7z M183.3,12.8c6.4,0,10.5,4.9,10.5,11.1
			c0,6.2-4.3,10.7-10.6,10.7c-6.2,0-10.3-5.1-10.3-11.1C172.9,17.7,177.3,12.8,183.3,12.8z"/>
		<path class="st2" d="M226.9,21.6c0-6.7,4.5-7.8,10.2-7.9v-13c-5,0-8.5,1.6-10.8,6.1h-0.2V2.2H214v43.1h12.9V21.6z"/>
		<path class="st2" d="M280.8,31.8h-13.2c-2.1,2.6-4.3,4-7.8,4c-5,0-9.3-3-10.1-8.2H282c0.2-1.2,0.3-2.3,0.3-3.4
			c0-13-9.6-23.5-22.8-23.5c-12.7,0-22.6,10.6-22.6,23.1c0,12.6,10.3,22.8,22.8,22.8C269.5,46.7,277.1,40.4,280.8,31.8z M259.6,11.6
			c4.7,0,8.8,2.7,9.8,7.4h-19.6C250.9,14.3,255,11.6,259.6,11.6z"/>
		<path class="st2" d="M306.7,46.7c9.7,0,17.3-6.3,21.1-14.9h-13.2c-2.1,2.6-4.4,4-7.8,4c-5,0-9.3-3-10.1-8.2h32.2
			c0.2-1.2,0.3-2.3,0.3-3.4c0-13-9.6-23.5-22.8-23.5c-12.7,0-22.6,10.6-22.6,23.1C283.9,36.5,294.1,46.7,306.7,46.7z M306.5,11.6
			c4.7,0,8.8,2.7,9.8,7.4h-19.6C297.8,14.3,301.9,11.6,306.5,11.6z"/>
		<path class="st2" d="M360.1,45.3H373v-27c0-5-0.9-10.5-5-13.9c-2.8-2.3-7.4-3.7-11-3.7c-5.2,0-9,1.6-11.7,6.1h-0.2V2.2h-12v43.1
			H346V21.8c0-5.1,1.4-9,7.4-9c5.8,0,6.8,4.1,6.8,8.9L360.1,45.3L360.1,45.3z"/>
		<path class="st2" d="M439.3,0.7c-5.8,0-10.6,2.8-13.7,7.7c-2.6-4.9-6.8-7.7-12.4-7.7c-4.9,0-9.4,1.6-11.9,6.1h-0.2V2.2h-12v43.1
			H402V22.4c0-5,1.3-9.6,7.3-9.6c5.4,0,6.4,4.6,6.4,9v23.5h12.9V21.8c0-4.9,1.4-8.9,7.1-8.9c6,0,6.6,4.8,6.6,9.6v22.8h12.9V21.8
			c0-6.6,0.2-11.7-4.7-16.7C447.6,2,443.5,0.7,439.3,0.7z"/>
		<path class="st2" d="M494.2,6.8H494c-2.6-4.3-7.8-6.1-12.6-6.1c-13,0-21.7,10.4-21.7,23c0,12.8,8.4,23.1,21.7,23.1
			c4.7,0,10.3-1.7,12.6-6.1h0.2v4.7h12.9V2.3h-12.9V6.8z M483.4,34.8c-6.1,0-10.7-4.9-10.7-10.9c0-6.1,4.4-11.1,10.6-11.1
			c6.3,0,10.9,4.7,10.9,11C494.2,29.9,489.7,34.8,483.4,34.8z"/>
		<path class="st2" d="M548.1,4.5c-2.8-2.3-7.4-3.7-11-3.7c-5.2,0-9,1.6-11.7,6.1h-0.2V2.3h-12v43h12.9V21.8c0-5.1,1.4-9,7.4-9
			c5.8,0,6.8,4.1,6.8,8.9v23.6h12.9v-27C553.1,13.3,552.3,7.9,548.1,4.5z"/>
		<path class="st2" d="M193.9,76.2h-0.2c-2.5-4-7.5-5.4-11.9-5.4c-13.1,0-21.7,10.6-21.7,23.2s8.9,22.7,21.7,22.7
			c4.6,0,9.6-1.9,11.8-6.1h0.2v1.3c0,6.8-3.4,11.7-10.5,11.7c-3.2,0-6.1-1.2-7.5-4.3h-14.9c0.3,2.4,1.2,4.7,2.6,6.7
			c4.3,6.2,11.6,8.5,18.9,8.5c7.8,0,17.6-3,21.8-10.2c2.5-4.3,2.6-9.4,2.6-14.2V72.2h-12.9V76.2z M183.3,104.7
			c-6.2,0-10.3-5.1-10.3-11.1c0-5.8,4.4-10.7,10.4-10.7c6.4,0,10.5,4.9,10.5,11.1C193.9,100.2,189.5,104.7,183.3,104.7z"/>
		<path class="st2" d="M245.9,76.8h-0.2c-2.6-4.3-7.8-6.1-12.6-6.1c-13,0-21.7,10.4-21.7,23c0,12.8,8.4,23.1,21.7,23.1
			c4.7,0,10.3-1.7,12.6-6.1h0.2v4.7h12.9V72.3h-12.9V76.8z M235.1,104.8c-6.1,0-10.7-4.9-10.7-10.9c0-6.1,4.3-11.1,10.6-11.1
			s10.9,4.7,10.9,11C245.9,99.9,241.4,104.8,235.1,104.8z"/>
		<path class="st2" d="M316.2,70.7c-5.8,0-10.6,2.8-13.7,7.7c-2.6-4.9-6.8-7.7-12.4-7.7c-4.9,0-9.4,1.6-11.9,6.1H278v-4.6h-12v43.1
			h12.9V92.4c0-5,1.3-9.6,7.3-9.6c5.4,0,6.4,4.6,6.4,9v23.5h12.9V91.8c0-4.9,1.4-8.9,7.1-8.9c6,0,6.6,4.8,6.6,9.6v22.8h12.9V91.8
			c0-6.6,0.2-11.7-4.7-16.7C324.5,72,320.5,70.7,316.2,70.7z"/>
		<rect x="338.9" y="72.2" class="st2" width="12.9" height="43.1"/>
		<path class="st2" d="M393.9,74.5c-2.8-2.3-7.4-3.7-11-3.7c-5.2,0-9,1.6-11.7,6.1h-0.3v-4.6h-12v43h12.9V91.8c0-5.1,1.4-9,7.4-9
			c5.8,0,6.8,4.1,6.8,8.9v23.6h12.9v-27C398.8,83.3,398,77.9,393.9,74.5z"/>
		<path class="st2" d="M437.4,76.2h-0.2c-2.5-4-7.5-5.4-11.9-5.4c-13.1,0-21.7,10.6-21.7,23.2s8.9,22.7,21.7,22.7
			c4.6,0,9.6-1.9,11.8-6.1h0.2v1.3c0,6.8-3.4,11.7-10.5,11.7c-3.2,0-6.1-1.2-7.5-4.3h-14.9c0.3,2.4,1.2,4.7,2.6,6.7
			c4.3,6.2,11.6,8.5,18.9,8.5c7.8,0,17.6-3,21.8-10.2c2.5-4.3,2.6-9.4,2.6-14.2V72.2h-12.9L437.4,76.2L437.4,76.2z M426.9,104.7
			c-6.2,0-10.3-5.1-10.3-11.1c0-5.8,4.4-10.7,10.4-10.7c6.4,0,10.5,4.9,10.5,11.1C437.4,100.2,433.1,104.7,426.9,104.7z"/>
	</g>
</g>
</svg>
